<svg version="1.2" xmlns="http://www.w3.org/2000/svg" viewBox="0 0 500 500" width="20" height="20">
	<title>New Project</title>
	<style>
		.s0 { fill: #808080 } 
		.s1 { fill: #ffffff } 
	</style>
	<path id="Shape 1" class="s0" d="m479.9 182.6q16.6 2.7 16.6 13.9 0 6.6-7.7 14.4l-107.8 106.7 25.6 150.6q0.2 2.1 0.3 6 0 6.3-3.2 10.7-3.1 4.4-9 4.4-5.7 0-11.9-3.6l-133.3-71.1-133.3 71.1q-6.5 3.6-11.9 3.6-6.2 0-9.3-4.4-3.1-4.4-3.1-10.7 0-1.8 0.5-6l25.6-150.6-108.1-106.7q-7.4-8.1-7.4-14.4 0-11.2 16.6-13.9l149.1-22 66.8-137.1q5.6-12.3 14.5-12.3 8.9 0 14.5 12.3l66.8 137.1 149.1 22z"/>
	<path id="Shape 1 copy" class="s1" d="m404.8 204.6q11.2 1.9 11.2 9.4 0 4.4-5.2 9.7l-72.6 71.9 17.2 101.5q0.2 1.5 0.2 4.1 0 4.3-2.1 7.2-2.1 3-6.1 3-3.8 0-8-2.5l-89.9-47.9-89.9 47.9q-4.4 2.5-8 2.5-4.2 0-6.3-3-2.1-2.9-2.1-7.2 0-1.2 0.4-4.1l17.2-101.5-72.8-71.9q-5-5.5-5-9.7 0-7.5 11.2-9.4l100.5-14.8 45-92.4q3.8-8.3 9.8-8.3 6 0 9.8 8.3l45 92.4 100.5 14.8z"/>
</svg>